# xmcd
#
# Track frame offsets: 
#        150
#        60296
#        89155
#        108733
#        127323
#        138136
#        167364
#        185079
#
# Disc length: 2781 seconds
#
# Revision: 0
# Processed by: cddbd v1.5.2PL0 Copyright (c) Steve Scherf et al.
# Submitted via: ExactAudioCopy v0.99pb5
#
DISCID=710adb08
DTITLE=The Black Crowes - World Broadcast Special, July 5th
DYEAR=1992
DGENRE=Blues
TTITLE0=Intro and Chris Interview
TTITLE1=Black Moon Creeping
TTITLE2=Twice As Hard
TTITLE3=Hotel Illness
TTITLE4=Chris Interview
TTITLE5=Seeing Things
TTITLE6=No Speak No Slave
TTITLE7=Chris Interview and Outro
EXTD=
EXTT0=
EXTT1=
EXTT2=
EXTT3=
EXTT4=
EXTT5=
EXTT6=
EXTT7=
PLAYORDER=
